ffmpeg version N-82167-g5e96558 Copyright (c) 2000-2016 the FFmpeg developers
  built with gcc 5.4.0 (Ubuntu 5.4.0-6ubuntu1~16.04.2) 20160609
  configuration: --prefix=/root/ffmpeg_build --pkg-config-flags=--static --extra-cflags=-I/root/ffmpeg_build/include --extra-ldflags=-L/root/ffmpeg_build/lib --bindir=/root/bin --enable-gpl --enable-libass --enable-libfdk-aac --enable-libfreetype --enable-libmp3lame --enable-libopus --enable-libtheora --enable-libvorbis --enable-libx264 --enable-libx265 --enable-nonfree
  libavutil      55. 35.100 / 55. 35.100
  libavcodec     57. 65.100 / 57. 65.100
  libavformat    57. 57.100 / 57. 57.100
  libavdevice    57.  2.100 / 57.  2.100
  libavfilter     6. 66.100 /  6. 66.100
  libswscale      4.  3.100 /  4.  3.100
  libswresample   2.  4.100 /  2.  4.100
  libpostproc    54.  2.100 / 54.  2.100
Input #0, matroska,webm, from '/media/yubikiri/bot/queue/3AnimePahe_Detective_Conan_-_059_720p_Fansub.mkv':
  Metadata:
    title           : 3|Text||0|0
    ALBUM           : Anime
    LANGUAGE        : Undefined
    ENCODER         : Lavf57.57.100
  Duration: 00:24:27.34, start: 0.000000, bitrate: 977 kb/s
    Stream #0:0: Video: mpeg4 (Advanced Simple Profile), yuv420p, 640x480 [SAR 1:1 DAR 4:3], 23.98 fps, 23.98 tbr, 1k tbn, 23.98 tbc (default)
    Metadata:
      DURATION        : 00:24:27.341000000
    Stream #0:1: Audio: mp3, 48000 Hz, stereo, s16p, 128 kb/s (default)
    Metadata:
      DURATION        : 00:24:27.288000000
[libx264 @ 0x284c3e0] using SAR=1/1
[libx264 @ 0x284c3e0] using cpu capabilities: MMX2 SSE2Fast SSSE3 SSE4.2 AVX FMA3 AVX2 LZCNT BMI2
[libx264 @ 0x284c3e0] profile High, level 3.1
[libx264 @ 0x284c3e0] 264 - core 148 r2643 5c65704 - H.264/MPEG-4 AVC codec - Copyleft 2003-2015 - http://www.videolan.org/x264.html - options: cabac=1 ref=8 deblock=1:1:1 analyse=0x3:0x133 me=umh subme=7 psy=1 psy_rd=0.00:0.00 mixed_ref=1 me_range=8 chroma_me=1 trellis=0 8x8dct=1 cqm=0 deadzone=21,11 fast_pskip=1 chroma_qp_offset=0 threads=8 lookahead_threads=2 sliced_threads=0 nr=0 decimate=1 interlaced=0 bluray_compat=0 constrained_intra=0 bframes=3 b_pyramid=2 b_adapt=2 b_bias=0 direct=1 weightb=1 open_gop=0 weightp=2 keyint=240 keyint_min=24 scenecut=40 intra_refresh=0 rc_lookahead=60 rc=crf mbtree=1 crf=27.0 qcomp=0.60 qpmin=0 qpmax=69 qpstep=4 ip_ratio=1.40 aq=1:1.00
[libfdk_aac @ 0x27d51a0] Note, the VBR setting is unsupported and only works with some parameter combinations
Output #0, mp4, to '/media/yubikiri/bot/queue/3AnimePahe_Detective_Conan_-_059_720p_Fansub.mkv_encoded.mp4':
  Metadata:
    encoder         : Lavf57.57.100
    Stream #0:0: Video: h264 (libx264) ([33][0][0][0] / 0x0021), yuv420p, 640x480 [SAR 1:1 DAR 4:3], q=-1--1, 23.98 fps, 24k tbn, 23.98 tbc (default)
    Metadata:
      encoder         : Lavc57.65.100 libx264
    Side data:
      cpb: bitrate max/min/avg: 0/0/0 buffer size: 0 vbv_delay: -1
    Stream #0:1: Audio: aac (libfdk_aac) (HE-AACv2) ([64][0][0][0] / 0x0040), 48000 Hz, stereo, s16, 48 kb/s (default)
    Metadata:
      encoder         : Lavc57.65.100 libfdk_aac
Stream mapping:
  Stream #0:0 -> #0:0 (mpeg4 (native) -> h264 (libx264))
  Stream #0:1 -> #0:1 (mp3 (native) -> aac (libfdk_aac))
Press [q] to stop, [?] for help
frame=  134 fps=0.0 q=32.0 size=      92kB time=00:00:05.73 bitrate= 131.0kbits/s dup=1 drop=0 speed=11.4x    frame=  204 fps=200 q=32.0 size=     224kB time=00:00:08.68 bitrate= 211.5kbits/s dup=1 drop=0 speed=8.53x    frame=  283 fps=185 q=32.0 size=     434kB time=00:00:11.96 bitrate= 297.3kbits/s dup=1 drop=0 speed=7.82x    frame=  359 fps=175 q=32.0 size=     611kB time=00:00:15.12 bitrate= 331.1kbits/s dup=1 drop=0 speed=7.38x    frame=  431 fps=167 q=32.0 size=     819kB time=00:00:18.15 bitrate= 369.5kbits/s dup=1 drop=0 speed=7.05x    frame=  487 fps=158 q=32.0 size=    1012kB time=00:00:20.45 bitrate= 405.4kbits/s dup=1 drop=0 speed=6.65x    frame=  537 fps=149 q=32.0 size=    1097kB time=00:00:22.55 bitrate= 398.5kbits/s dup=1 drop=0 speed=6.26x    frame=  601 fps=146 q=32.0 size=    1257kB time=00:00:25.23 bitrate= 408.1kbits/s dup=1 drop=0 speed=6.14x    frame=  693 fps=150 q=32.0 size=    1397kB time=00:00:29.07 bitrate= 393.6kbits/s dup=1 drop=0 speed= 6.3x    frame=  792 fps=155 q=32.0 size=    1554kB time=00:00:33.17 bitrate= 383.6kbits/s dup=1 drop=0 speed=6.48x    frame=  854 fps=152 q=32.0 size=    1698kB time=00:00:35.77 bitrate= 388.9kbits/s dup=1 drop=0 speed=6.35x    frame=  935 fps=152 q=32.0 size=    1800kB time=00:00:39.14 bitrate= 376.6kbits/s dup=1 drop=0 speed=6.38x    frame=  978 fps=147 q=32.0 size=    1967kB time=00:00:40.93 bitrate= 393.6kbits/s dup=1 drop=0 speed=6.16x    frame= 1045 fps=146 q=32.0 size=    2164kB time=00:00:43.75 bitrate= 405.1kbits/s dup=1 drop=0 speed=6.12x    frame= 1118 fps=146 q=32.0 size=    2309kB time=00:00:46.78 bitrate= 404.2kbits/s dup=1 drop=0 speed=6.11x    frame= 1179 fps=144 q=32.0 size=    2512kB time=00:00:49.34 bitrate= 417.0kbits/s dup=1 drop=0 speed=6.03x    frame= 1238 fps=142 q=32.0 size=    2714kB time=00:00:51.77 bitrate= 429.4kbits/s dup=1 drop=0 speed=5.96x    frame= 1292 fps=141 q=32.0 size=    2863kB time=00:00:54.03 bitrate= 434.0kbits/s dup=1 drop=0 speed=5.88x    frame= 1388 fps=143 q=32.0 size=    3014kB time=00:00:58.04 bitrate= 425.4kbits/s dup=1 drop=0 speed=5.99x    frame= 1489 fps=146 q=32.0 size=    3129kB time=00:01:02.27 bitrate= 411.7kbits/s dup=1 drop=0 speed=6.11x    frame= 1555 fps=145 q=32.0 size=    3272kB time=00:01:05.00 bitrate= 412.3kbits/s dup=1 drop=0 speed=6.08x    frame= 1610 fps=144 q=32.0 size=    3396kB time=00:01:07.30 bitrate= 413.3kbits/s dup=1 drop=0 speed=6.01x    frame= 1670 fps=143 q=32.0 size=    3526kB time=00:01:09.82 bitrate= 413.7kbits/s dup=1 drop=0 speed=5.97x    frame= 1742 fps=143 q=32.0 size=    3683kB time=00:01:12.81 bitrate= 414.4kbits/s dup=1 drop=0 speed=5.96x    frame= 1833 fps=144 q=32.0 size=    3828kB time=00:01:16.60 bitrate= 409.3kbits/s dup=1 drop=0 speed=6.01x    frame= 1919 fps=145 q=32.0 size=    3974kB time=00:01:20.19 bitrate= 406.0kbits/s dup=1 drop=0 speed=6.06x    frame= 1989 fps=144 q=32.0 size=    4129kB time=00:01:23.09 bitrate= 407.0kbits/s dup=1 drop=0 speed=6.03x    frame= 2024 fps=142 q=32.0 size=    4282kB time=00:01:24.58 bitrate= 414.7kbits/s dup=1 drop=0 speed=5.92x    frame= 2065 fps=140 q=32.0 size=    4475kB time=00:01:26.29 bitrate= 424.9kbits/s dup=1 drop=0 speed=5.83x    frame= 2116 fps=138 q=32.0 size=    4621kB time=00:01:28.42 bitrate= 428.1kbits/s dup=1 drop=0 speed=5.77x    frame= 2192 fps=138 q=32.0 size=    4756kB time=00:01:31.58 bitrate= 425.4kbits/s dup=1 drop=0 speed=5.79x    frame= 2316 fps=142 q=32.0 size=    4886kB time=00:01:36.74 bitrate= 413.7kbits/s dup=1 drop=0 speed=5.92x    frame= 2450 fps=146 q=32.0 size=    5013kB time=00:01:42.33 bitrate= 401.3kbits/s dup=1 drop=0 speed=6.08x    frame= 2550 fps=147 q=32.0 size=    5090kB time=00:01:46.51 bitrate= 391.5kbits/s dup=1 drop=0 speed=6.14x    frame= 2612 fps=146 q=32.0 size=    5154kB time=00:01:49.12 bitrate= 386.9kbits/s dup=1 drop=0 speed=6.12x    frame= 2677 fps=146 q=32.0 size=    5297kB time=00:01:51.80 bitrate= 388.1kbits/s dup=1 drop=0 speed= 6.1x    frame= 2759 fps=146 q=32.0 size=    5393kB time=00:01:55.22 bitrate= 383.4kbits/s dup=1 drop=0 speed= 6.1x    frame= 2820 fps=145 q=32.0 size=    5473kB time=00:01:57.78 bitrate= 380.7kbits/s dup=1 drop=0 speed=6.07x    frame= 2906 fps=146 q=32.0 size=    5533kB time=00:02:01.36 bitrate= 373.5kbits/s dup=1 drop=0 speed= 6.1x    frame= 3005 fps=147 q=32.0 size=    5596kB time=00:02:05.50 bitrate= 365.2kbits/s dup=1 drop=0 speed=6.15x    frame= 3074 fps=147 q=32.0 size=    5742kB time=00:02:08.36 bitrate= 366.4kbits/s dup=1 drop=0 speed=6.14x    frame= 3133 fps=146 q=32.0 size=    5847kB time=00:02:10.83 bitrate= 366.1kbits/s dup=1 drop=0 speed=6.11x    frame= 3168 fps=145 q=32.0 size=    5917kB time=00:02:12.33 bitrate= 366.3kbits/s dup=1 drop=0 speed=6.04x    frame= 3207 fps=143 q=32.0 size=    5984kB time=00:02:13.91 bitrate= 366.1kbits/s dup=1 drop=0 speed=5.97x    frame= 3268 fps=143 q=32.0 size=    6093kB time=00:02:16.47 bitrate= 365.7kbits/s dup=1 drop=0 speed=5.95x    frame= 3326 fps=142 q=32.0 size=    6198kB time=00:02:18.90 bitrate= 365.5kbits/s dup=1 drop=0 speed=5.93x    frame= 3383 fps=141 q=32.0 size=    6263kB time=00:02:21.24 bitrate= 363.3kbits/s dup=1 drop=0 speed= 5.9x    frame= 3436 fps=141 q=32.0 size=    6364kB time=00:02:23.46 bitrate= 363.4kbits/s dup=1 drop=0 speed=5.87x    frame= 3491 fps=140 q=32.0 size=    6481kB time=00:02:25.77 bitrate= 364.2kbits/s dup=1 drop=0 speed=5.85x    frame= 3547 fps=139 q=32.0 size=    6578kB time=00:02:28.11 bitrate= 363.8kbits/s dup=1 drop=0 speed=5.82x    frame= 3597 fps=139 q=32.0 size=    6721kB time=00:02:30.20 bitrate= 366.6kbits/s dup=1 drop=0 speed=5.79x    frame= 3642 fps=137 q=32.0 size=    6832kB time=00:02:32.04 bitrate= 368.1kbits/s dup=1 drop=0 speed=5.74x    frame= 3674 fps=136 q=32.0 size=    6899kB time=00:02:33.36 bitrate= 368.5kbits/s dup=1 drop=0 speed=5.68x    frame= 3715 fps=135 q=32.0 size=    7030kB time=00:02:35.11 bitrate= 371.3kbits/s dup=1 drop=0 speed=5.63x    frame= 3754 fps=134 q=32.0 size=    7137kB time=00:02:36.73 bitrate= 373.0kbits/s dup=1 drop=0 speed=5.59x    frame= 3813 fps=134 q=32.0 size=    7206kB time=00:02:39.21 bitrate= 370.8kbits/s dup=1 drop=0 speed=5.58x    frame= 3876 fps=133 q=32.0 size=    7265kB time=00:02:41.81 bitrate= 367.8kbits/s dup=1 drop=0 speed=5.56x    frame= 3936 fps=133 q=32.0 size=    7326kB time=00:02:44.33 bitrate= 365.2kbits/s dup=1 drop=0 speed=5.54x    frame= 3993 fps=132 q=32.0 size=    7418kB time=00:02:46.67 bitrate= 364.6kbits/s dup=1 drop=0 speed=5.53x    frame= 4036 fps=132 q=32.0 size=    7509kB time=00:02:48.51 bitrate= 365.0kbits/s dup=1 drop=0 speed= 5.5x    frame= 4089 fps=131 q=32.0 size=    7633kB time=00:02:50.73 bitrate= 366.2kbits/s dup=1 drop=0 speed=5.47x    frame= 4152 fps=131 q=32.0 size=    7708kB time=00:02:53.33 bitrate= 364.3kbits/s dup=1 drop=0 speed=5.46x    frame= 4208 fps=130 q=32.0 size=    7843kB time=00:02:55.68 bitrate= 365.7kbits/s dup=1 drop=0 speed=5.45x    frame= 4286 fps=131 q=32.0 size=    7927kB time=00:02:58.92 bitrate= 362.9kbits/s dup=1 drop=0 speed=5.46x    frame= 4337 fps=130 q=32.0 size=    7999kB time=00:03:01.05 bitrate= 361.9kbits/s dup=1 drop=0 speed=5.44x    frame= 4393 fps=130 q=32.0 size=    8096kB time=00:03:03.36 bitrate= 361.7kbits/s dup=1 drop=0 speed=5.43x    frame= 4453 fps=130 q=32.0 size=    8174kB time=00:03:05.87 bitrate= 360.2kbits/s dup=1 drop=0 speed=5.42x    frame= 4520 fps=130 q=32.0 size=    8249kB time=00:03:08.69 bitrate= 358.1kbits/s dup=1 drop=0 speed=5.42x    frame= 4577 fps=130 q=32.0 size=    8333kB time=00:03:11.08 bitrate= 357.3kbits/s dup=1 drop=0 speed=5.41x    frame= 4655 fps=130 q=32.0 size=    8433kB time=00:03:14.28 bitrate= 355.6kbits/s dup=1 drop=0 speed=5.43x    frame= 4729 fps=130 q=32.0 size=    8541kB time=00:03:17.39 bitrate= 354.4kbits/s dup=1 drop=0 speed=5.44x    frame= 4788 fps=130 q=32.0 size=    8652kB time=00:03:19.83 bitrate= 354.7kbits/s dup=1 drop=0 speed=5.43x    frame= 4848 fps=130 q=32.0 size=    8717kB time=00:03:22.34 bitrate= 352.9kbits/s dup=1 drop=0 speed=5.42x    frame= 4900 fps=130 q=32.0 size=    8794kB time=00:03:24.52 bitrate= 352.2kbits/s dup=1 drop=0 speed=5.41x    frame= 4950 fps=129 q=32.0 size=    8924kB time=00:03:26.61 bitrate= 353.8kbits/s dup=1 drop=0 speed=5.39x    frame= 5010 fps=129 q=32.0 size=    9013kB time=00:03:29.13 bitrate= 353.0kbits/s dup=1 drop=0 speed=5.39x    frame= 5054 fps=128 q=32.0 size=    9123kB time=00:03:30.96 bitrate= 354.3kbits/s dup=1 drop=0 speed=5.36x    frame= 5098 fps=128 q=32.0 size=    9190kB time=00:03:32.80 bitrate= 353.8kbits/s dup=1 drop=0 speed=5.34x    frame= 5142 fps=127 q=32.0 size=    9283kB time=00:03:34.63 bitrate= 354.3kbits/s dup=1 drop=0 speed=5.32x    frame= 5185 fps=127 q=32.0 size=    9378kB time=00:03:36.42 bitrate= 355.0kbits/s dup=1 drop=0 speed=5.29x    frame= 5221 fps=126 q=32.0 size=    9448kB time=00:03:37.92 bitrate= 355.2kbits/s dup=1 drop=0 speed=5.27x    frame= 5261 fps=125 q=32.0 size=    9525kB time=00:03:39.58 bitrate= 355.4kbits/s dup=1 drop=0 speed=5.23x    frame= 5302 fps=125 q=32.0 size=    9634kB time=00:03:41.29 bitrate= 356.7kbits/s dup=1 drop=0 speed=5.21x    frame= 5344 fps=124 q=32.0 size=    9713kB time=00:03:43.04 bitrate= 356.7kbits/s dup=1 drop=0 speed=5.19x    frame= 5386 fps=124 q=32.0 size=    9787kB time=00:03:44.79 bitrate= 356.7kbits/s dup=1 drop=0 speed=5.16x    frame= 5431 fps=123 q=32.0 size=    9884kB time=00:03:46.66 bitrate= 357.2kbits/s dup=1 drop=0 speed=5.15x    frame= 5465 fps=123 q=32.0 size=    9968kB time=00:03:48.07 bitrate= 358.0kbits/s dup=1 drop=0 speed=5.11x    frame= 5500 fps=122 q=32.0 size=   10063kB time=00:03:49.56 bitrate= 359.1kbits/s dup=1 drop=0 speed=5.09x    frame= 5539 fps=121 q=32.0 size=   10154kB time=00:03:51.19 bitrate= 359.8kbits/s dup=1 drop=0 speed=5.06x    frame= 5589 fps=121 q=32.0 size=   10280kB time=00:03:53.23 bitrate= 361.1kbits/s dup=1 drop=0 speed=5.05x    frame= 5644 fps=121 q=32.0 size=   10417kB time=00:03:55.54 bitrate= 362.3kbits/s dup=1 drop=0 speed=5.05x    frame= 5711 fps=121 q=32.0 size=   10540kB time=00:03:58.35 bitrate= 362.3kbits/s dup=1 drop=0 speed=5.05x    frame= 5777 fps=121 q=32.0 size=   10612kB time=00:04:01.08 bitrate= 360.6kbits/s dup=1 drop=0 speed=5.05x    frame= 5843 fps=121 q=32.0 size=   10683kB time=00:04:03.86 bitrate= 358.9kbits/s dup=1 drop=0 speed=5.06x    frame= 5904 fps=121 q=32.0 size=   10788kB time=00:04:06.42 bitrate= 358.6kbits/s dup=1 drop=0 speed=5.05x    frame= 5982 fps=121 q=32.0 size=   10853kB time=00:04:09.62 bitrate= 356.2kbits/s dup=1 drop=0 speed=5.07x    frame= 6041 fps=121 q=32.0 size=   10924kB time=00:04:12.13 bitrate= 354.9kbits/s dup=1 drop=0 speed=5.07x    frame= 6087 fps=121 q=32.0 size=   11044kB time=00:04:14.05 bitrate= 356.1kbits/s dup=1 drop=0 speed=5.05x    frame= 6165 fps=121 q=32.0 size=   11150kB time=00:04:17.25 bitrate= 355.1kbits/s dup=1 drop=0 speed=5.07x    frame= 6213 fps=121 q=32.0 size=   11249kB time=00:04:19.30 bitrate= 355.4kbits/s dup=1 drop=0 speed=5.06x    frame= 6258 fps=121 q=32.0 size=   11342kB time=00:04:21.14 bitrate= 355.8kbits/s dup=1 drop=0 speed=5.04x    frame= 6293 fps=120 q=32.0 size=   11412kB time=00:04:22.63 bitrate= 355.9kbits/s dup=1 drop=0 speed=5.02x    frame= 6341 fps=120 q=32.0 size=   11487kB time=00:04:24.59 bitrate= 355.6kbits/s dup=1 drop=0 speed=5.01x    frame= 6394 fps=120 q=32.0 size=   11593kB time=00:04:26.81 bitrate= 355.9kbits/s dup=1 drop=0 speed=5.01x    frame= 6446 fps=120 q=32.0 size=   11680kB time=00:04:29.03 bitrate= 355.6kbits/s dup=1 drop=0 speed=   5x    frame= 6496 fps=120 q=32.0 size=   11764kB time=00:04:31.08 bitrate= 355.5kbits/s dup=1 drop=0 speed=4.99x    frame= 6553 fps=120 q=32.0 size=   11848kB time=00:04:33.47 bitrate= 354.9kbits/s dup=1 drop=0 speed=4.99x    frame= 6621 fps=120 q=32.0 size=   11964kB time=00:04:36.28 bitrate= 354.7kbits/s dup=1 drop=0 speed=4.99x    frame= 6680 fps=120 q=32.0 size=   12054kB time=00:04:38.76 bitrate= 354.2kbits/s dup=1 drop=0 speed=4.99x    frame= 6735 fps=120 q=32.0 size=   12119kB time=00:04:41.06 bitrate= 353.2kbits/s dup=1 drop=0 speed=4.99x    frame= 6807 fps=120 q=32.0 size=   12217kB time=00:04:44.05 bitrate= 352.3kbits/s dup=1 drop=0 speed=   5x    frame= 6875 fps=120 q=32.0 size=   12320kB time=00:04:46.91 bitrate= 351.8kbits/s dup=1 drop=0 speed=   5x    frame= 6936 fps=120 q=32.0 size=   12393kB time=00:04:49.43 bitrate= 350.8kbits/s dup=1 drop=0 speed=   5x    frame= 7003 fps=120 q=32.0 size=   12505kB time=00:04:52.28 bitrate= 350.5kbits/s dup=1 drop=0 speed=5.01x    frame= 7063 fps=120 q=32.0 size=   12613kB time=00:04:54.76 bitrate= 350.5kbits/s dup=1 drop=0 speed=5.01x    frame= 7132 fps=120 q=32.0 size=   12691kB time=00:04:57.66 bitrate= 349.3kbits/s dup=1 drop=0 speed=5.01x    frame= 7220 fps=121 q=32.0 size=   12782kB time=00:05:01.29 bitrate= 347.5kbits/s dup=1 drop=0 speed=5.03x    frame= 7295 fps=121 q=32.0 size=   12949kB time=00:05:04.40 bitrate= 348.5kbits/s dup=1 drop=0 speed=5.04x    frame= 7353 fps=121 q=32.0 size=   13037kB time=00:05:06.83 bitrate= 348.1kbits/s dup=1 drop=0 speed=5.03x    frame= 7423 fps=121 q=32.0 size=   13168kB time=00:05:09.78 bitrate= 348.2kbits/s dup=1 drop=0 speed=5.04x    frame= 7500 fps=121 q=32.0 size=   13247kB time=00:05:12.93 bitrate= 346.8kbits/s dup=1 drop=0 speed=5.05x    frame= 7567 fps=121 q=32.0 size=   13379kB time=00:05:15.75 bitrate= 347.1kbits/s dup=1 drop=0 speed=5.05x    frame= 7660 fps=122 q=32.0 size=   13530kB time=00:05:19.63 bitrate= 346.8kbits/s dup=1 drop=0 speed=5.07x    frame= 7743 fps=122 q=32.0 size=   13638kB time=00:05:23.09 bitrate= 345.8kbits/s dup=1 drop=0 speed=5.09x    frame= 7825 fps=122 q=32.0 size=   13720kB time=00:05:26.50 bitrate= 344.2kbits/s dup=1 drop=0 speed= 5.1x    frame= 7912 fps=123 q=32.0 size=   13851kB time=00:05:30.13 bitrate= 343.7kbits/s dup=1 drop=0 speed=5.12x    frame= 7997 fps=123 q=32.0 size=   13941kB time=00:05:33.67 bitrate= 342.3kbits/s dup=1 drop=0 speed=5.13x    frame= 8088 fps=123 q=32.0 size=   14059kB time=00:05:37.47 bitrate= 341.3kbits/s dup=1 drop=0 speed=5.15x    frame= 8188 fps=124 q=32.0 size=   14149kB time=00:05:41.65 bitrate= 339.3kbits/s dup=1 drop=0 speed=5.18x    frame= 8258 fps=124 q=32.0 size=   14300kB time=00:05:44.59 bitrate= 339.9kbits/s dup=1 drop=0 speed=5.18x    frame= 8307 fps=124 q=32.0 size=   14442kB time=00:05:46.64 bitrate= 341.3kbits/s dup=1 drop=0 speed=5.17x    frame= 8369 fps=124 q=32.0 size=   14537kB time=00:05:49.20 bitrate= 341.0kbits/s dup=1 drop=0 speed=5.17x    frame= 8414 fps=124 q=32.0 size=   14665kB time=00:05:51.08 bitrate= 342.2kbits/s dup=1 drop=0 speed=5.16x    frame= 8462 fps=123 q=32.0 size=   14774kB time=00:05:53.08 bitrate= 342.8kbits/s dup=1 drop=0 speed=5.15x    frame= 8512 fps=123 q=32.0 size=   14900kB time=00:05:55.17 bitrate= 343.7kbits/s dup=1 drop=0 speed=5.14x    frame= 8571 fps=123 q=32.0 size=   15077kB time=00:05:57.65 bitrate= 345.3kbits/s dup=1 drop=0 speed=5.14x    frame= 8643 fps=123 q=32.0 size=   15173kB time=00:06:00.64 bitrate= 344.7kbits/s dup=1 drop=0 speed=5.14x    frame= 8720 fps=123 q=32.0 size=   15297kB time=00:06:03.88 bitrate= 344.4kbits/s dup=1 drop=0 speed=5.15x    frame= 8815 fps=124 q=32.0 size=   15387kB time=00:06:07.80 bitrate= 342.7kbits/s dup=1 drop=0 speed=5.17x    frame= 8913 fps=124 q=32.0 size=   15507kB time=00:06:11.90 bitrate= 341.6kbits/s dup=1 drop=0 speed=5.19x    frame= 9003 fps=125 q=32.0 size=   15597kB time=00:06:15.65 bitrate= 340.1kbits/s dup=1 drop=0 speed=5.21x    frame= 9097 fps=125 q=32.0 size=   15701kB time=00:06:19.58 bitrate= 338.8kbits/s dup=1 drop=0 speed=5.22x    frame= 9155 fps=125 q=32.0 size=   15806kB time=00:06:22.01 bitrate= 338.9kbits/s dup=1 drop=0 speed=5.22x    frame= 9213 fps=125 q=32.0 size=   15881kB time=00:06:24.40 bitrate= 338.4kbits/s dup=1 drop=0 speed=5.22x    frame= 9288 fps=125 q=32.0 size=   15997kB time=00:06:27.56 bitrate= 338.1kbits/s dup=1 drop=0 speed=5.22x    frame= 9379 fps=126 q=32.0 size=   16072kB time=00:06:31.36 bitrate= 336.4kbits/s dup=1 drop=0 speed=5.24x    frame= 9455 fps=126 q=32.0 size=   16177kB time=00:06:34.51 bitrate= 335.9kbits/s dup=1 drop=0 speed=5.24x    frame= 9553 fps=126 q=32.0 size=   16273kB time=00:06:38.57 bitrate= 334.5kbits/s dup=1 drop=0 speed=5.26x    frame= 9642 fps=126 q=32.0 size=   16339kB time=00:06:42.32 bitrate= 332.7kbits/s dup=1 drop=0 speed=5.28x    frame= 9709 fps=127 q=32.0 size=   16467kB time=00:06:45.09 bitrate= 333.0kbits/s dup=1 drop=0 speed=5.28x    frame= 9786 fps=127 q=32.0 size=   16593kB time=00:06:48.29 bitrate= 332.9kbits/s dup=1 drop=0 speed=5.29x    frame= 9841 fps=127 q=32.0 size=   16750kB time=00:06:50.60 bitrate= 334.2kbits/s dup=1 drop=0 speed=5.28x    frame= 9900 fps=126 q=32.0 size=   16864kB time=00:06:53.07 bitrate= 334.4kbits/s dup=1 drop=0 speed=5.28x    frame= 9960 fps=126 q=32.0 size=   17020kB time=00:06:55.59 bitrate= 335.5kbits/s dup=1 drop=0 speed=5.28x    frame=10031 fps=127 q=32.0 size=   17154kB time=00:06:58.53 bitrate= 335.8kbits/s dup=1 drop=0 speed=5.28x    frame=10084 fps=126 q=32.0 size=   17297kB time=00:07:00.75 bitrate= 336.8kbits/s dup=1 drop=0 speed=5.27x    frame=10152 fps=126 q=32.0 size=   17445kB time=00:07:03.61 bitrate= 337.4kbits/s dup=1 drop=0 speed=5.28x    frame=10207 fps=126 q=32.0 size=   17580kB time=00:07:05.87 bitrate= 338.2kbits/s dup=1 drop=0 speed=5.27x    frame=10280 fps=126 q=32.0 size=   17717kB time=00:07:08.90 bitrate= 338.4kbits/s dup=1 drop=0 speed=5.28x    frame=10350 fps=127 q=32.0 size=   17770kB time=00:07:11.85 bitrate= 337.1kbits/s dup=1 drop=0 speed=5.28x    frame=10417 fps=127 q=32.0 size=   17838kB time=00:07:14.62 bitrate= 336.2kbits/s dup=1 drop=0 speed=5.28x    frame=10514 fps=127 q=32.0 size=   17933kB time=00:07:18.67 bitrate= 334.9kbits/s dup=1 drop=0 speed= 5.3x    frame=10588 fps=127 q=32.0 size=   18065kB time=00:07:21.75 bitrate= 335.0kbits/s dup=1 drop=0 speed= 5.3x    frame=10643 fps=127 q=32.0 size=   18157kB time=00:07:24.05 bitrate= 335.0kbits/s dup=1 drop=0 speed= 5.3x    frame=10683 fps=127 q=32.0 size=   18280kB time=00:07:25.71 bitrate= 336.0kbits/s dup=1 drop=0 speed=5.29x    frame=10716 fps=126 q=32.0 size=   18416kB time=00:07:27.08 bitrate= 337.4kbits/s dup=1 drop=0 speed=5.27x    frame=10753 fps=126 q=32.0 size=   18566kB time=00:07:28.66 bitrate= 339.0kbits/s dup=1 drop=0 speed=5.26x    frame=10808 fps=126 q=32.0 size=   18682kB time=00:07:30.92 bitrate= 339.4kbits/s dup=1 drop=0 speed=5.25x    frame=10859 fps=126 q=32.0 size=   18762kB time=00:07:33.05 bitrate= 339.2kbits/s dup=1 drop=0 speed=5.24x    frame=10892 fps=125 q=32.0 size=   18851kB time=00:07:34.42 bitrate= 339.8kbits/s dup=1 drop=0 speed=5.23x    frame=10928 fps=125 q=32.0 size=   18945kB time=00:07:35.95 bitrate= 340.4kbits/s dup=1 drop=0 speed=5.21x    frame=10996 fps=125 q=32.0 size=   19038kB time=00:07:38.77 bitrate= 340.0kbits/s dup=1 drop=0 speed=5.22x    frame=11046 fps=125 q=32.0 size=   19142kB time=00:07:40.86 bitrate= 340.3kbits/s dup=1 drop=0 speed=5.21x    frame=11101 fps=125 q=32.0 size=   19251kB time=00:07:43.16 bitrate= 340.5kbits/s dup=1 drop=0 speed= 5.2x    frame=11164 fps=125 q=32.0 size=   19367kB time=00:07:45.77 bitrate= 340.6kbits/s dup=1 drop=0 speed= 5.2x    frame=11242 fps=125 q=32.0 size=   19423kB time=00:07:49.05 bitrate= 339.2kbits/s dup=1 drop=0 speed=5.21x    frame=11327 fps=125 q=32.0 size=   19511kB time=00:07:52.59 bitrate= 338.2kbits/s dup=1 drop=0 speed=5.22x    frame=11418 fps=125 q=32.0 size=   19594kB time=00:07:56.39 bitrate= 336.9kbits/s dup=1 drop=0 speed=5.23x    frame=11516 fps=126 q=32.0 size=   19691kB time=00:08:00.49 bitrate= 335.7kbits/s dup=1 drop=0 speed=5.24x    frame=11599 fps=126 q=32.0 size=   19868kB time=00:08:03.94 bitrate= 336.3kbits/s dup=1 drop=0 speed=5.25x    frame=11682 fps=126 q=32.0 size=   19995kB time=00:08:07.40 bitrate= 336.1kbits/s dup=1 drop=0 speed=5.26x    frame=11766 fps=126 q=32.0 size=   20081kB time=00:08:10.90 bitrate= 335.1kbits/s dup=1 drop=0 speed=5.27x    frame=11852 fps=127 q=32.0 size=   20159kB time=00:08:14.48 bitrate= 334.0kbits/s dup=1 drop=0 speed=5.28x    frame=11946 fps=127 q=32.0 size=   20281kB time=00:08:18.41 bitrate= 333.3kbits/s dup=1 drop=0 speed=5.29x    frame=12029 fps=127 q=32.0 size=   20343kB time=00:08:21.86 bitrate= 332.1kbits/s dup=1 drop=0 speed= 5.3x    frame=12111 fps=127 q=32.0 size=   20511kB time=00:08:25.28 bitrate= 332.5kbits/s dup=1 drop=0 speed=5.31x    frame=12199 fps=127 q=32.0 size=   20610kB time=00:08:28.95 bitrate= 331.7kbits/s dup=1 drop=0 speed=5.32x    frame=12295 fps=128 q=32.0 size=   20717kB time=00:08:32.96 bitrate= 330.9kbits/s dup=1 drop=0 speed=5.33x    frame=12386 fps=128 q=32.0 size=   20827kB time=00:08:36.75 bitrate= 330.2kbits/s dup=1 drop=0 speed=5.34x    frame=12446 fps=128 q=32.0 size=   20938kB time=00:08:39.27 bitrate= 330.3kbits/s dup=1 drop=0 speed=5.34x    frame=12490 fps=128 q=32.0 size=   21031kB time=00:08:41.06 bitrate= 330.6kbits/s dup=1 drop=0 speed=5.33x    frame=12540 fps=128 q=32.0 size=   21140kB time=00:08:43.15 bitrate= 331.0kbits/s dup=1 drop=0 speed=5.33x    frame=12591 fps=128 q=32.0 size=   21247kB time=00:08:45.29 bitrate= 331.4kbits/s dup=1 drop=0 speed=5.32x    frame=12667 fps=128 q=32.0 size=   21376kB time=00:08:48.49 bitrate= 331.3kbits/s dup=1 drop=0 speed=5.33x    frame=12745 fps=128 q=32.0 size=   21478kB time=00:08:51.73 bitrate= 330.9kbits/s dup=1 drop=0 speed=5.33x    frame=12827 fps=128 q=32.0 size=   21597kB time=00:08:55.14 bitrate= 330.6kbits/s dup=1 drop=0 speed=5.34x    frame=12906 fps=128 q=32.0 size=   21681kB time=00:08:58.43 bitrate= 329.9kbits/s dup=1 drop=0 speed=5.35x    frame=12965 fps=128 q=32.0 size=   21784kB time=00:09:00.90 bitrate= 329.9kbits/s dup=1 drop=0 speed=5.34x    frame=13015 fps=128 q=32.0 size=   21958kB time=00:09:02.99 bitrate= 331.3kbits/s dup=1 drop=0 speed=5.34x    frame=13068 fps=128 q=32.0 size=   22079kB time=00:09:05.21 bitrate= 331.7kbits/s dup=1 drop=0 speed=5.33x    frame=13140 fps=128 q=32.0 size=   22182kB time=00:09:08.20 bitrate= 331.5kbits/s dup=1 drop=0 speed=5.33x    frame=13217 fps=128 q=32.0 size=   22304kB time=00:09:11.40 bitrate= 331.4kbits/s dup=1 drop=0 speed=5.34x    frame=13295 fps=128 q=32.0 size=   22459kB time=00:09:14.64 bitrate= 331.7kbits/s dup=1 drop=0 speed=5.34x    frame=13387 fps=128 q=32.0 size=   22572kB time=00:09:18.48 bitrate= 331.1kbits/s dup=1 drop=0 speed=5.35x    frame=13454 fps=128 q=32.0 size=   22675kB time=00:09:21.30 bitrate= 330.9kbits/s dup=1 drop=0 speed=5.36x    frame=13504 fps=128 q=32.0 size=   22788kB time=00:09:23.39 bitrate= 331.4kbits/s dup=1 drop=0 speed=5.35x    frame=13589 fps=128 q=32.0 size=   22940kB time=00:09:26.93 bitrate= 331.5kbits/s dup=1 drop=0 speed=5.36x    frame=13689 fps=129 q=32.0 size=   23059kB time=00:09:31.11 bitrate= 330.8kbits/s dup=1 drop=0 speed=5.37x    frame=13773 fps=129 q=32.0 size=   23181kB time=00:09:34.61 bitrate= 330.5kbits/s dup=1 drop=0 speed=5.38x    frame=13836 fps=129 q=32.0 size=   23297kB time=00:09:37.21 bitrate= 330.6kbits/s dup=1 drop=0 speed=5.38x    frame=13919 fps=129 q=32.0 size=   23431kB time=00:09:40.71 bitrate= 330.5kbits/s dup=1 drop=0 speed=5.38x    frame=13990 fps=129 q=32.0 size=   23523kB time=00:09:43.65 bitrate= 330.2kbits/s dup=1 drop=0 speed=5.39x    frame=14060 fps=129 q=32.0 size=   23625kB time=00:09:46.60 bitrate= 329.9kbits/s dup=1 drop=0 speed=5.39x    frame=14135 fps=129 q=32.0 size=   23733kB time=00:09:49.71 bitrate= 329.7kbits/s dup=1 drop=0 speed=5.39x    frame=14209 fps=129 q=32.0 size=   23870kB time=00:09:52.79 bitrate= 329.9kbits/s dup=1 drop=0 speed=5.39x    frame=14286 fps=129 q=32.0 size=   24006kB time=00:09:56.03 bitrate= 329.9kbits/s dup=1 drop=0 speed= 5.4x    frame=14357 fps=129 q=32.0 size=   24134kB time=00:09:58.97 bitrate= 330.1kbits/s dup=1 drop=0 speed= 5.4x    frame=14430 fps=130 q=32.0 size=   24236kB time=00:10:02.00 bitrate= 329.8kbits/s dup=1 drop=0 speed= 5.4x    frame=14502 fps=130 q=32.0 size=   24411kB time=00:10:05.03 bitrate= 330.5kbits/s dup=1 drop=0 speed=5.41x    frame=14563 fps=130 q=32.0 size=   24560kB time=00:10:07.55 bitrate= 331.2kbits/s dup=1 drop=0 speed= 5.4x    frame=14618 fps=129 q=32.0 size=   24692kB time=00:10:09.81 bitrate= 331.7kbits/s dup=1 drop=0 speed= 5.4x    frame=14651 fps=129 q=32.0 size=   24827kB time=00:10:11.22 bitrate= 332.8kbits/s dup=1 drop=0 speed=5.39x    frame=14686 fps=129 q=32.0 size=   24964kB time=00:10:12.71 bitrate= 333.8kbits/s dup=1 drop=0 speed=5.38x    frame=14742 fps=129 q=32.0 size=   25156kB time=00:10:15.01 bitrate= 335.1kbits/s dup=1 drop=0 speed=5.37x    frame=14784 fps=129 q=32.0 size=   25275kB time=00:10:16.76 bitrate= 335.7kbits/s dup=1 drop=0 speed=5.36x    frame=14824 fps=128 q=32.0 size=   25455kB time=00:10:18.43 bitrate= 337.2kbits/s dup=1 drop=0 speed=5.35x    frame=14866 fps=128 q=32.0 size=   25582kB time=00:10:20.22 bitrate= 337.9kbits/s dup=1 drop=0 speed=5.35x    frame=14936 fps=128 q=32.0 size=   25699kB time=00:10:23.12 bitrate= 337.9kbits/s dup=1 drop=0 speed=5.35x    frame=14994 fps=128 q=32.0 size=   25848kB time=00:10:25.51 bitrate= 338.5kbits/s dup=1 drop=0 speed=5.35x    frame=15068 fps=128 q=32.0 size=   25985kB time=00:10:28.63 bitrate= 338.6kbits/s dup=1 drop=0 speed=5.35x    frame=15156 fps=128 q=32.0 size=   26097kB time=00:10:32.29 bitrate= 338.1kbits/s dup=1 drop=0 speed=5.36x    frame=15254 fps=129 q=32.0 size=   26207kB time=00:10:36.39 bitrate= 337.3kbits/s dup=1 drop=0 speed=5.37x    frame=15325 fps=129 q=32.0 size=   26319kB time=00:10:39.33 bitrate= 337.2kbits/s dup=1 drop=0 speed=5.37x    frame=15403 fps=129 q=32.0 size=   26424kB time=00:10:42.58 bitrate= 336.9kbits/s dup=1 drop=0 speed=5.38x    frame=15488 fps=129 q=32.0 size=   26547kB time=00:10:46.12 bitrate= 336.6kbits/s dup=1 drop=0 speed=5.38x    frame=15571 fps=129 q=32.0 size=   26657kB time=00:10:49.62 bitrate= 336.2kbits/s dup=1 drop=0 speed=5.39x    frame=15654 fps=129 q=32.0 size=   26786kB time=00:10:53.07 bitrate= 336.0kbits/s dup=1 drop=0 speed=5.39x    frame=15752 fps=130 q=32.0 size=   26915kB time=00:10:57.13 bitrate= 335.5kbits/s dup=1 drop=0 speed=5.41x    frame=15821 fps=130 q=32.0 size=   27074kB time=00:11:00.03 bitrate= 336.0kbits/s dup=1 drop=0 speed=5.41x    frame=15880 fps=129 q=32.0 size=   27152kB time=00:11:02.50 bitrate= 335.7kbits/s dup=1 drop=0 speed= 5.4x    frame=15955 fps=130 q=32.0 size=   27299kB time=00:11:05.62 bitrate= 336.0kbits/s dup=1 drop=0 speed=5.41x    frame=16010 fps=129 q=32.0 size=   27451kB time=00:11:07.92 bitrate= 336.7kbits/s dup=1 drop=0 speed= 5.4x    frame=16089 fps=130 q=32.0 size=   27544kB time=00:11:11.21 bitrate= 336.2kbits/s dup=1 drop=0 speed=5.41x    frame=16159 fps=130 q=32.0 size=   27645kB time=00:11:14.15 bitrate= 335.9kbits/s dup=1 drop=0 speed=5.41x    frame=16237 fps=130 q=32.0 size=   27764kB time=00:11:17.35 bitrate= 335.8kbits/s dup=1 drop=0 speed=5.41x    frame=16325 fps=130 q=32.0 size=   27851kB time=00:11:21.02 bitrate= 335.0kbits/s dup=1 drop=0 speed=5.42x    frame=16409 fps=130 q=32.0 size=   27965kB time=00:11:24.56 bitrate= 334.6kbits/s dup=1 drop=0 speed=5.43x    frame=16515 fps=130 q=32.0 size=   28039kB time=00:11:28.96 bitrate= 333.4kbits/s dup=1 drop=0 speed=5.44x    frame=16600 fps=131 q=32.0 size=   28204kB time=00:11:32.50 bitrate= 333.6kbits/s dup=1 drop=0 speed=5.44x    frame=16693 fps=131 q=32.0 size=   28282kB time=00:11:36.42 bitrate= 332.7kbits/s dup=1 drop=0 speed=5.45x    frame=16741 fps=131 q=32.0 size=   28364kB time=00:11:38.39 bitrate= 332.7kbits/s dup=1 drop=0 speed=5.45x    frame=16804 fps=131 q=32.0 size=   28500kB time=00:11:40.99 bitrate= 333.1kbits/s dup=1 drop=0 speed=5.45x    frame=16891 fps=131 q=32.0 size=   28595kB time=00:11:44.66 bitrate= 332.4kbits/s dup=1 drop=0 speed=5.45x    frame=16988 fps=131 q=32.0 size=   28700kB time=00:11:48.71 bitrate= 331.7kbits/s dup=1 drop=0 speed=5.46x    frame=17082 fps=131 q=32.0 size=   28802kB time=00:11:52.64 bitrate= 331.1kbits/s dup=1 drop=0 speed=5.47x    frame=17175 fps=131 q=32.0 size=   28914kB time=00:11:56.48 bitrate= 330.6kbits/s dup=1 drop=0 speed=5.48x    frame=17261 fps=132 q=32.0 size=   28995kB time=00:12:00.10 bitrate= 329.8kbits/s dup=1 drop=0 speed=5.49x    frame=17324 fps=132 q=32.0 size=   29111kB time=00:12:02.75 bitrate= 330.0kbits/s dup=1 drop=0 speed=5.49x    frame=17403 fps=132 q=32.0 size=   29271kB time=00:12:05.99 bitrate= 330.3kbits/s dup=1 drop=0 speed=5.49x    frame=17493 fps=132 q=32.0 size=   29368kB time=00:12:09.75 bitrate= 329.7kbits/s dup=1 drop=0 speed= 5.5x    frame=17565 fps=132 q=32.0 size=   29435kB time=00:12:12.77 bitrate= 329.1kbits/s dup=1 drop=0 speed= 5.5x    frame=17676 fps=132 q=32.0 size=   29498kB time=00:12:17.38 bitrate= 327.7kbits/s dup=1 drop=0 speed=5.51x    frame=17762 fps=132 q=32.0 size=   29606kB time=00:12:20.97 bitrate= 327.3kbits/s dup=1 drop=0 speed=5.52x    frame=17812 fps=132 q=32.0 size=   29694kB time=00:12:23.06 bitrate= 327.4kbits/s dup=1 drop=0 speed=5.51x    frame=17869 fps=132 q=32.0 size=   29789kB time=00:12:25.45 bitrate= 327.4kbits/s dup=1 drop=0 speed=5.51x    frame=17936 fps=132 q=32.0 size=   29857kB time=00:12:28.22 bitrate= 326.9kbits/s dup=1 drop=0 speed=5.51x    frame=18002 fps=132 q=32.0 size=   29954kB time=00:12:30.99 bitrate= 326.7kbits/s dup=1 drop=0 speed=5.51x    frame=18079 fps=132 q=32.0 size=   30019kB time=00:12:34.24 bitrate= 326.0kbits/s dup=1 drop=0 speed=5.51x    frame=18154 fps=132 q=32.0 size=   30114kB time=00:12:37.35 bitrate= 325.7kbits/s dup=1 drop=0 speed=5.52x    frame=18217 fps=132 q=32.0 size=   30195kB time=00:12:39.95 bitrate= 325.5kbits/s dup=1 drop=0 speed=5.51x    frame=18278 fps=132 q=32.0 size=   30255kB time=00:12:42.51 bitrate= 325.0kbits/s dup=1 drop=0 speed=5.51x    frame=18326 fps=132 q=32.0 size=   30349kB time=00:12:44.48 bitrate= 325.2kbits/s dup=1 drop=0 speed=5.51x    frame=18368 fps=132 q=32.0 size=   30451kB time=00:12:46.23 bitrate= 325.6kbits/s dup=1 drop=0 speed= 5.5x    frame=18450 fps=132 q=32.0 size=   30561kB time=00:12:49.68 bitrate= 325.3kbits/s dup=1 drop=0 speed= 5.5x    frame=18529 fps=132 q=32.0 size=   30626kB time=00:12:52.97 bitrate= 324.6kbits/s dup=1 drop=0 speed=5.51x    frame=18601 fps=132 q=32.0 size=   30768kB time=00:12:55.95 bitrate= 324.8kbits/s dup=1 drop=0 speed=5.51x    frame=18668 fps=132 q=32.0 size=   30871kB time=00:12:58.77 bitrate= 324.7kbits/s dup=1 drop=0 speed=5.51x    frame=18750 fps=132 q=32.0 size=   31016kB time=00:13:02.18 bitrate= 324.8kbits/s dup=1 drop=0 speed=5.52x    frame=18835 fps=132 q=32.0 size=   31116kB time=00:13:05.72 bitrate= 324.4kbits/s dup=1 drop=0 speed=5.52x    frame=18924 fps=132 q=32.0 size=   31250kB time=00:13:09.44 bitrate= 324.3kbits/s dup=1 drop=0 speed=5.53x    frame=19006 fps=133 q=32.0 size=   31371kB time=00:13:12.89 bitrate= 324.1kbits/s dup=1 drop=0 speed=5.53x    frame=19082 fps=133 q=32.0 size=   31465kB time=00:13:16.01 bitrate= 323.8kbits/s dup=1 drop=0 speed=5.53x    frame=19141 fps=133 q=32.0 size=   31569kB time=00:13:18.48 bitrate= 323.9kbits/s dup=1 drop=0 speed=5.53x    frame=19216 fps=133 q=32.0 size=   31696kB time=00:13:21.60 bitrate= 323.9kbits/s dup=1 drop=0 speed=5.53x    frame=19298 fps=133 q=32.0 size=   31816kB time=00:13:25.05 bitrate= 323.7kbits/s dup=1 drop=0 speed=5.54x    frame=19366 fps=133 q=32.0 size=   31887kB time=00:13:27.87 bitrate= 323.3kbits/s dup=1 drop=0 speed=5.54x    frame=19416 fps=133 q=32.0 size=   32041kB time=00:13:29.96 bitrate= 324.1kbits/s dup=1 drop=0 speed=5.53x    frame=19467 fps=133 q=32.0 size=   32178kB time=00:13:32.09 bitrate= 324.6kbits/s dup=1 drop=0 speed=5.53x    frame=19536 fps=133 q=32.0 size=   32267kB time=00:13:34.99 bitrate= 324.3kbits/s dup=1 drop=0 speed=5.53x    frame=19612 fps=133 q=32.0 size=   32361kB time=00:13:38.15 bitrate= 324.0kbits/s dup=1 drop=0 speed=5.53x    frame=19685 fps=133 q=32.0 size=   32443kB time=00:13:41.18 bitrate= 323.6kbits/s dup=1 drop=0 speed=5.53x    frame=19771 fps=133 q=32.0 size=   32586kB time=00:13:44.76 bitrate= 323.7kbits/s dup=1 drop=0 speed=5.54x    frame=19854 fps=133 q=32.0 size=   32663kB time=00:13:48.22 bitrate= 323.1kbits/s dup=1 drop=0 speed=5.54x    frame=19938 fps=133 q=32.0 size=   32776kB time=00:13:51.72 bitrate= 322.8kbits/s dup=1 drop=0 speed=5.55x    frame=19998 fps=133 q=32.0 size=   32839kB time=00:13:54.24 bitrate= 322.5kbits/s dup=1 drop=0 speed=5.55x    frame=20074 fps=133 q=32.0 size=   32978kB time=00:13:57.39 bitrate= 322.6kbits/s dup=1 drop=0 speed=5.55x    frame=20149 fps=133 q=32.0 size=   33082kB time=00:14:00.55 bitrate= 322.4kbits/s dup=1 drop=0 speed=5.55x    frame=20226 fps=133 q=32.0 size=   33182kB time=00:14:03.75 bitrate= 322.2kbits/s dup=1 drop=0 speed=5.55x    frame=20303 fps=133 q=32.0 size=   33308kB time=00:14:06.95 bitrate= 322.2kbits/s dup=1 drop=0 speed=5.56x    frame=20390 fps=133 q=32.0 size=   33424kB time=00:14:10.58 bitrate= 321.9kbits/s dup=1 drop=0 speed=5.56x    frame=20478 fps=133 q=32.0 size=   33498kB time=00:14:14.25 bitrate= 321.2kbits/s dup=1 drop=0 speed=5.57x    frame=20555 fps=134 q=32.0 size=   33634kB time=00:14:17.45 bitrate= 321.3kbits/s dup=1 drop=0 speed=5.57x    frame=20619 fps=133 q=32.0 size=   33768kB time=00:14:20.13 bitrate= 321.6kbits/s dup=1 drop=0 speed=5.57x    frame=20677 fps=133 q=32.0 size=   33858kB time=00:14:22.57 bitrate= 321.6kbits/s dup=1 drop=0 speed=5.57x    frame=20752 fps=133 q=32.0 size=   33974kB time=00:14:25.68 bitrate= 321.5kbits/s dup=1 drop=0 speed=5.57x    frame=20817 fps=133 q=32.0 size=   34053kB time=00:14:28.37 bitrate= 321.2kbits/s dup=1 drop=0 speed=5.57x    frame=20884 fps=133 q=32.0 size=   34188kB time=00:14:31.19 bitrate= 321.5kbits/s dup=1 drop=0 speed=5.57x    frame=20993 fps=134 q=32.0 size=   34288kB time=00:14:35.75 bitrate= 320.7kbits/s dup=1 drop=0 speed=5.58x    frame=21082 fps=134 q=32.0 size=   34416kB time=00:14:39.46 bitrate= 320.6kbits/s dup=1 drop=0 speed=5.58x    frame=21152 fps=134 q=32.0 size=   34514kB time=00:14:42.36 bitrate= 320.4kbits/s dup=1 drop=0 speed=5.58x    frame=21238 fps=134 q=32.0 size=   34632kB time=00:14:45.95 bitrate= 320.2kbits/s dup=1 drop=0 speed=5.59x    frame=21292 fps=134 q=32.0 size=   34745kB time=00:14:48.21 bitrate= 320.5kbits/s dup=1 drop=0 speed=5.58x    frame=21359 fps=134 q=32.0 size=   34826kB time=00:14:50.98 bitrate= 320.2kbits/s dup=1 drop=0 speed=5.58x    frame=21417 fps=134 q=32.0 size=   34950kB time=00:14:53.41 bitrate= 320.5kbits/s dup=1 drop=0 speed=5.58x    frame=21500 fps=134 q=32.0 size=   35057kB time=00:14:56.87 bitrate= 320.2kbits/s dup=1 drop=0 speed=5.58x    frame=21561 fps=134 q=32.0 size=   35156kB time=00:14:59.43 bitrate= 320.2kbits/s dup=1 drop=0 speed=5.58x    frame=21615 fps=134 q=32.0 size=   35249kB time=00:15:01.65 bitrate= 320.3kbits/s dup=1 drop=0 speed=5.58x    frame=21698 fps=134 q=32.0 size=   35375kB time=00:15:05.15 bitrate= 320.2kbits/s dup=1 drop=0 speed=5.58x    frame=21779 fps=134 q=32.0 size=   35449kB time=00:15:08.52 bitrate= 319.6kbits/s dup=1 drop=0 speed=5.58x    frame=21856 fps=134 q=32.0 size=   35564kB time=00:15:11.72 bitrate= 319.5kbits/s dup=1 drop=0 speed=5.59x    frame=21944 fps=134 q=32.0 size=   35652kB time=00:15:15.39 bitrate= 319.1kbits/s dup=1 drop=0 speed=5.59x    frame=22036 fps=134 q=32.0 size=   35756kB time=00:15:19.23 bitrate= 318.7kbits/s dup=1 drop=0 speed= 5.6x    frame=22121 fps=134 q=32.0 size=   35822kB time=00:15:22.81 bitrate= 318.0kbits/s dup=1 drop=0 speed= 5.6x    frame=22222 fps=134 q=32.0 size=   35921kB time=00:15:27.04 bitrate= 317.4kbits/s dup=1 drop=0 speed=5.61x    frame=22330 fps=135 q=32.0 size=   35998kB time=00:15:31.52 bitrate= 316.6kbits/s dup=1 drop=0 speed=5.62x    frame=22427 fps=135 q=32.0 size=   36096kB time=00:15:35.53 bitrate= 316.1kbits/s dup=1 drop=0 speed=5.63x    frame=22528 fps=135 q=32.0 size=   36195kB time=00:15:39.75 bitrate= 315.5kbits/s dup=1 drop=0 speed=5.64x    frame=22654 fps=135 q=32.0 size=   36321kB time=00:15:45.00 bitrate= 314.9kbits/s dup=1 drop=0 speed=5.65x    frame=22778 fps=136 q=32.0 size=   36432kB time=00:15:50.16 bitrate= 314.1kbits/s dup=1 drop=0 speed=5.66x    frame=22895 fps=136 q=32.0 size=   36518kB time=00:15:55.07 bitrate= 313.2kbits/s dup=1 drop=0 speed=5.68x    frame=23035 fps=137 q=32.0 size=   36618kB time=00:16:00.91 bitrate= 312.2kbits/s dup=1 drop=0 speed=5.69x    frame=23137 fps=137 q=29.0 size=   36706kB time=00:16:05.14 bitrate= 311.6kbits/s dup=1 drop=0 speed= 5.7x    frame=23201 fps=137 q=32.0 size=   36817kB time=00:16:07.83 bitrate= 311.6kbits/s dup=1 drop=0 speed= 5.7x    frame=23260 fps=137 q=32.0 size=   36892kB time=00:16:10.30 bitrate= 311.5kbits/s dup=1 drop=0 speed= 5.7x    frame=23359 fps=137 q=32.0 size=   36980kB time=00:16:14.44 bitrate= 310.9kbits/s dup=1 drop=0 speed=5.71x    frame=23441 fps=137 q=32.0 size=   37082kB time=00:16:17.85 bitrate= 310.7kbits/s dup=1 drop=0 speed=5.71x    frame=23549 fps=137 q=32.0 size=   37148kB time=00:16:22.33 bitrate= 309.8kbits/s dup=1 drop=0 speed=5.72x    frame=23639 fps=137 q=32.0 size=   37235kB time=00:16:26.09 bitrate= 309.3kbits/s dup=1 drop=0 speed=5.72x    frame=23743 fps=137 q=32.0 size=   37337kB time=00:16:30.44 bitrate= 308.8kbits/s dup=1 drop=0 speed=5.73x    frame=23845 fps=138 q=32.0 size=   37400kB time=00:16:34.71 bitrate= 308.0kbits/s dup=1 drop=0 speed=5.74x    frame=23944 fps=138 q=32.0 size=   37462kB time=00:16:38.80 bitrate= 307.3kbits/s dup=1 drop=0 speed=5.75x    frame=24023 fps=138 q=32.0 size=   37548kB time=00:16:42.13 bitrate= 306.9kbits/s dup=1 drop=0 speed=5.75x    frame=24094 fps=138 q=32.0 size=   37675kB time=00:16:45.07 bitrate= 307.1kbits/s dup=1 drop=0 speed=5.75x    frame=24160 fps=138 q=32.0 size=   37778kB time=00:16:47.85 bitrate= 307.1kbits/s dup=1 drop=0 speed=5.75x    frame=24244 fps=138 q=32.0 size=   37907kB time=00:16:51.35 bitrate= 307.0kbits/s dup=1 drop=0 speed=5.75x    frame=24350 fps=138 q=32.0 size=   37993kB time=00:16:55.74 bitrate= 306.4kbits/s dup=1 drop=0 speed=5.76x    frame=24433 fps=138 q=32.0 size=   38091kB time=00:16:59.20 bitrate= 306.2kbits/s dup=1 drop=0 speed=5.77x    frame=24521 fps=138 q=32.0 size=   38174kB time=00:17:02.87 bitrate= 305.7kbits/s dup=1 drop=0 speed=5.77x    frame=24622 fps=138 q=32.0 size=   38269kB time=00:17:07.09 bitrate= 305.2kbits/s dup=1 drop=0 speed=5.78x    frame=24750 fps=139 q=32.0 size=   38372kB time=00:17:12.42 bitrate= 304.5kbits/s dup=1 drop=0 speed=5.79x    frame=24852 fps=139 q=32.0 size=   38501kB time=00:17:16.69 bitrate= 304.2kbits/s dup=1 drop=0 speed= 5.8x    frame=24949 fps=139 q=32.0 size=   38576kB time=00:17:20.74 bitrate= 303.6kbits/s dup=1 drop=0 speed= 5.8x    frame=25030 fps=139 q=32.0 size=   38723kB time=00:17:24.11 bitrate= 303.8kbits/s dup=1 drop=0 speed=5.81x    frame=25113 fps=139 q=32.0 size=   38834kB time=00:17:27.57 bitrate= 303.7kbits/s dup=1 drop=0 speed=5.81x    frame=25190 fps=139 q=32.0 size=   38911kB time=00:17:30.77 bitrate= 303.4kbits/s dup=1 drop=0 speed=5.81x    frame=25257 fps=139 q=32.0 size=   39006kB time=00:17:33.59 bitrate= 303.3kbits/s dup=1 drop=0 speed=5.81x    frame=25323 fps=139 q=32.0 size=   39112kB time=00:17:36.32 bitrate= 303.3kbits/s dup=1 drop=0 speed=5.81x    frame=25370 fps=139 q=32.0 size=   39208kB time=00:17:38.28 bitrate= 303.5kbits/s dup=1 drop=0 speed= 5.8x    frame=25414 fps=139 q=32.0 size=   39329kB time=00:17:40.11 bitrate= 303.9kbits/s dup=1 drop=0 speed= 5.8x    frame=25528 fps=139 q=32.0 size=   39447kB time=00:17:44.89 bitrate= 303.5kbits/s dup=1 drop=0 speed=5.81x    frame=25620 fps=139 q=32.0 size=   39548kB time=00:17:48.73 bitrate= 303.1kbits/s dup=1 drop=0 speed=5.81x    frame=25743 fps=140 q=32.0 size=   39654kB time=00:17:53.85 bitrate= 302.5kbits/s dup=1 drop=0 speed=5.83x    frame=25869 fps=140 q=32.0 size=   39767kB time=00:17:59.10 bitrate= 301.9kbits/s dup=1 drop=0 speed=5.84x    frame=26000 fps=140 q=32.0 size=   39848kB time=00:18:04.56 bitrate= 301.0kbits/s dup=1 drop=0 speed=5.85x    frame=26105 fps=140 q=32.0 size=   39937kB time=00:18:08.96 bitrate= 300.4kbits/s dup=1 drop=0 speed=5.86x    frame=26251 fps=141 q=32.0 size=   40025kB time=00:18:15.06 bitrate= 299.4kbits/s dup=1 drop=0 speed=5.88x    frame=26302 fps=141 q=32.0 size=   40102kB time=00:18:17.19 bitrate= 299.4kbits/s dup=1 drop=0 speed=5.87x    frame=26327 fps=141 q=32.0 size=   40212kB time=00:18:18.21 bitrate= 300.0kbits/s dup=1 drop=0 speed=5.86x    frame=26366 fps=140 q=32.0 size=   40355kB time=00:18:19.84 bitrate= 300.6kbits/s dup=1 drop=0 speed=5.85x    frame=26419 fps=140 q=32.0 size=   40479kB time=00:18:22.05 bitrate= 300.9kbits/s dup=1 drop=0 speed=5.85x    frame=26462 fps=140 q=32.0 size=   40569kB time=00:18:23.85 bitrate= 301.1kbits/s dup=1 drop=0 speed=5.84x    frame=26494 fps=140 q=32.0 size=   40712kB time=00:18:25.17 bitrate= 301.8kbits/s dup=1 drop=0 speed=5.83x    frame=26562 fps=140 q=32.0 size=   40829kB time=00:18:27.99 bitrate= 301.9kbits/s dup=1 drop=0 speed=5.83x    frame=26615 fps=140 q=32.0 size=   40926kB time=00:18:30.20 bitrate= 302.0kbits/s dup=1 drop=0 speed=5.83x    frame=26668 fps=140 q=32.0 size=   41023kB time=00:18:32.42 bitrate= 302.1kbits/s dup=1 drop=0 speed=5.83x    frame=26711 fps=140 q=32.0 size=   41164kB time=00:18:34.21 bitrate= 302.6kbits/s dup=1 drop=0 speed=5.82x    frame=26779 fps=140 q=32.0 size=   41302kB time=00:18:37.03 bitrate= 302.9kbits/s dup=1 drop=0 speed=5.82x    frame=26835 fps=139 q=32.0 size=   41372kB time=00:18:39.42 bitrate= 302.8kbits/s dup=1 drop=0 speed=5.82x    frame=26912 fps=139 q=32.0 size=   41457kB time=00:18:42.62 bitrate= 302.5kbits/s dup=1 drop=0 speed=5.82x    frame=26989 fps=140 q=32.0 size=   41553kB time=00:18:45.82 bitrate= 302.4kbits/s dup=1 drop=0 speed=5.82x    frame=27060 fps=140 q=32.0 size=   41632kB time=00:18:48.81 bitrate= 302.1kbits/s dup=1 drop=0 speed=5.82x    frame=27126 fps=139 q=32.0 size=   41722kB time=00:18:51.54 bitrate= 302.1kbits/s dup=1 drop=0 speed=5.82x    frame=27204 fps=140 q=32.0 size=   41786kB time=00:18:54.78 bitrate= 301.7kbits/s dup=1 drop=0 speed=5.82x    frame=27274 fps=139 q=32.0 size=   41914kB time=00:18:57.72 bitrate= 301.8kbits/s dup=1 drop=0 speed=5.82x    frame=27327 fps=139 q=32.0 size=   42030kB time=00:18:59.90 bitrate= 302.0kbits/s dup=1 drop=0 speed=5.81x    frame=27372 fps=139 q=32.0 size=   42143kB time=00:19:01.78 bitrate= 302.4kbits/s dup=1 drop=0 speed=5.81x    frame=27413 fps=139 q=32.0 size=   42246kB time=00:19:03.48 bitrate= 302.6kbits/s dup=1 drop=0 speed= 5.8x    frame=27449 fps=139 q=32.0 size=   42340kB time=00:19:05.02 bitrate= 302.9kbits/s dup=1 drop=0 speed= 5.8x    frame=27478 fps=139 q=32.0 size=   42442kB time=00:19:06.21 bitrate= 303.3kbits/s dup=1 drop=0 speed=5.79x    frame=27526 fps=139 q=32.0 size=   42547kB time=00:19:08.22 bitrate= 303.5kbits/s dup=1 drop=0 speed=5.78x    frame=27576 fps=139 q=32.0 size=   42682kB time=00:19:10.31 bitrate= 304.0kbits/s dup=1 drop=0 speed=5.78x    frame=27641 fps=139 q=32.0 size=   42793kB time=00:19:13.00 bitrate= 304.0kbits/s dup=1 drop=0 speed=5.78x    frame=27690 fps=138 q=32.0 size=   42875kB time=00:19:15.05 bitrate= 304.1kbits/s dup=1 drop=0 speed=5.77x    frame=27743 fps=138 q=32.0 size=   42949kB time=00:19:17.27 bitrate= 304.0kbits/s dup=1 drop=0 speed=5.77x    frame=27818 fps=138 q=32.0 size=   43060kB time=00:19:20.38 bitrate= 304.0kbits/s dup=1 drop=0 speed=5.77x    frame=27879 fps=138 q=32.0 size=   43187kB time=00:19:22.94 bitrate= 304.2kbits/s dup=1 drop=0 speed=5.77x    frame=27953 fps=138 q=32.0 size=   43335kB time=00:19:26.05 bitrate= 304.4kbits/s dup=1 drop=0 speed=5.77x    frame=28036 fps=138 q=32.0 size=   43478kB time=00:19:29.51 bitrate= 304.5kbits/s dup=1 drop=0 speed=5.77x    frame=28101 fps=138 q=32.0 size=   43588kB time=00:19:32.20 bitrate= 304.6kbits/s dup=1 drop=0 speed=5.77x    frame=28173 fps=138 q=32.0 size=   43668kB time=00:19:35.19 bitrate= 304.4kbits/s dup=1 drop=0 speed=5.77x    frame=28243 fps=138 q=32.0 size=   43743kB time=00:19:38.13 bitrate= 304.2kbits/s dup=1 drop=0 speed=5.77x    frame=28324 fps=138 q=32.0 size=   43876kB time=00:19:41.50 bitrate= 304.2kbits/s dup=1 drop=0 speed=5.77x    frame=28397 fps=138 q=32.0 size=   43943kB time=00:19:44.53 bitrate= 303.9kbits/s dup=1 drop=0 speed=5.77x    frame=28440 fps=138 q=32.0 size=   44055kB time=00:19:46.32 bitrate= 304.2kbits/s dup=1 drop=0 speed=5.77x    frame=28495 fps=138 q=32.0 size=   44151kB time=00:19:48.63 bitrate= 304.3kbits/s dup=1 drop=0 speed=5.77x    frame=28565 fps=138 q=32.0 size=   44242kB time=00:19:51.53 bitrate= 304.2kbits/s dup=1 drop=0 speed=5.77x    frame=28629 fps=138 q=32.0 size=   44321kB time=00:19:54.21 bitrate= 304.0kbits/s dup=1 drop=0 speed=5.76x    frame=28700 fps=138 q=32.0 size=   44404kB time=00:19:57.20 bitrate= 303.8kbits/s dup=1 drop=0 speed=5.77x    frame=28771 fps=138 q=32.0 size=   44534kB time=00:20:00.15 bitrate= 304.0kbits/s dup=1 drop=0 speed=5.77x    frame=28834 fps=138 q=32.0 size=   44611kB time=00:20:02.79 bitrate= 303.8kbits/s dup=1 drop=0 speed=5.76x    frame=28891 fps=138 q=32.0 size=   44680kB time=00:20:05.14 bitrate= 303.7kbits/s dup=1 drop=0 speed=5.76x    frame=28954 fps=138 q=32.0 size=   44803kB time=00:20:07.78 bitrate= 303.9kbits/s dup=1 drop=0 speed=5.76x    frame=29025 fps=138 q=32.0 size=   44894kB time=00:20:10.73 bitrate= 303.8kbits/s dup=1 drop=0 speed=5.76x    frame=29095 fps=138 q=32.0 size=   44963kB time=00:20:13.67 bitrate= 303.5kbits/s dup=1 drop=0 speed=5.76x    frame=29168 fps=138 q=32.0 size=   45059kB time=00:20:16.70 bitrate= 303.4kbits/s dup=1 drop=0 speed=5.76x    frame=29234 fps=138 q=32.0 size=   45155kB time=00:20:19.47 bitrate= 303.3kbits/s dup=1 drop=0 speed=5.76x    frame=29306 fps=138 q=32.0 size=   45251kB time=00:20:22.50 bitrate= 303.2kbits/s dup=1 drop=0 speed=5.76x    frame=29366 fps=138 q=32.0 size=   45338kB time=00:20:24.93 bitrate= 303.2kbits/s dup=1 drop=0 speed=5.76x    frame=29415 fps=138 q=32.0 size=   45405kB time=00:20:26.98 bitrate= 303.1kbits/s dup=1 drop=0 speed=5.75x    frame=29473 fps=138 q=32.0 size=   45475kB time=00:20:29.41 bitrate= 303.0kbits/s dup=1 drop=0 speed=5.75x    frame=29528 fps=138 q=32.0 size=   45587kB time=00:20:31.72 bitrate= 303.2kbits/s dup=1 drop=0 speed=5.75x    frame=29596 fps=138 q=32.0 size=   45705kB time=00:20:34.53 bitrate= 303.3kbits/s dup=1 drop=0 speed=5.75x    frame=29665 fps=138 q=32.0 size=   45795kB time=00:20:37.44 bitrate= 303.2kbits/s dup=1 drop=0 speed=5.75x    frame=29742 fps=138 q=32.0 size=   45890kB time=00:20:40.64 bitrate= 303.0kbits/s dup=1 drop=0 speed=5.75x    frame=29822 fps=138 q=32.0 size=   45998kB time=00:20:43.96 bitrate= 302.9kbits/s dup=1 drop=0 speed=5.75x    frame=29902 fps=138 q=32.0 size=   46088kB time=00:20:47.33 bitrate= 302.7kbits/s dup=1 drop=0 speed=5.75x    frame=29992 fps=138 q=32.0 size=   46161kB time=00:20:51.05 bitrate= 302.3kbits/s dup=1 drop=0 speed=5.76x    frame=30069 fps=138 q=32.0 size=   46255kB time=00:20:54.29 bitrate= 302.1kbits/s dup=1 drop=0 speed=5.76x    frame=30122 fps=138 q=32.0 size=   46350kB time=00:20:56.51 bitrate= 302.2kbits/s dup=1 drop=0 speed=5.75x    frame=30181 fps=138 q=32.0 size=   46471kB time=00:20:58.98 bitrate= 302.4kbits/s dup=1 drop=0 speed=5.75x    frame=30258 fps=138 q=32.0 size=   46541kB time=00:21:02.14 bitrate= 302.1kbits/s dup=1 drop=0 speed=5.75x    frame=30334 fps=138 q=32.0 size=   46610kB time=00:21:05.34 bitrate= 301.8kbits/s dup=1 drop=0 speed=5.76x    frame=30418 fps=138 q=32.0 size=   46702kB time=00:21:08.84 bitrate= 301.5kbits/s dup=1 drop=0 speed=5.76x    frame=30507 fps=138 q=32.0 size=   46807kB time=00:21:12.55 bitrate= 301.3kbits/s dup=1 drop=0 speed=5.76x    frame=30595 fps=138 q=32.0 size=   46874kB time=00:21:16.22 bitrate= 300.9kbits/s dup=1 drop=0 speed=5.77x    frame=30668 fps=138 q=32.0 size=   46998kB time=00:21:19.25 bitrate= 301.0kbits/s dup=1 drop=0 speed=5.77x    frame=30756 fps=138 q=32.0 size=   47119kB time=00:21:22.92 bitrate= 300.9kbits/s dup=1 drop=0 speed=5.77x    frame=30842 fps=138 q=32.0 size=   47231kB time=00:21:26.50 bitrate= 300.7kbits/s dup=1 drop=0 speed=5.77x    frame=30912 fps=138 q=32.0 size=   47318kB time=00:21:29.45 bitrate= 300.6kbits/s dup=1 drop=0 speed=5.77x    frame=30978 fps=138 q=32.0 size=   47469kB time=00:21:32.22 bitrate= 300.9kbits/s dup=1 drop=0 speed=5.77x    frame=31036 fps=138 q=32.0 size=   47577kB time=00:21:34.61 bitrate= 301.1kbits/s dup=1 drop=0 speed=5.77x    frame=31095 fps=138 q=32.0 size=   47710kB time=00:21:37.08 bitrate= 301.3kbits/s dup=1 drop=0 speed=5.77x    frame=31176 fps=138 q=32.0 size=   47807kB time=00:21:40.45 bitrate= 301.2kbits/s dup=1 drop=0 speed=5.77x    frame=31225 fps=138 q=32.0 size=   47917kB time=00:21:42.46 bitrate= 301.4kbits/s dup=1 drop=0 speed=5.76x    frame=31276 fps=138 q=32.0 size=   48036kB time=00:21:44.64 bitrate= 301.6kbits/s dup=1 drop=0 speed=5.76x    frame=31319 fps=138 q=32.0 size=   48150kB time=00:21:46.43 bitrate= 301.9kbits/s dup=1 drop=0 speed=5.76x    frame=31357 fps=138 q=32.0 size=   48266kB time=00:21:48.01 bitrate= 302.3kbits/s dup=1 drop=0 speed=5.75x    frame=31395 fps=138 q=32.0 size=   48378kB time=00:21:49.59 bitrate= 302.6kbits/s dup=1 drop=0 speed=5.74x    frame=31441 fps=138 q=32.0 size=   48534kB time=00:21:51.51 bitrate= 303.2kbits/s dup=1 drop=0 speed=5.74x    frame=31486 fps=137 q=32.0 size=   48638kB time=00:21:53.38 bitrate= 303.4kbits/s dup=1 drop=0 speed=5.73x    frame=31536 fps=137 q=32.0 size=   48733kB time=00:21:55.47 bitrate= 303.5kbits/s dup=1 drop=0 speed=5.73x    frame=31603 fps=137 q=32.0 size=   48861kB time=00:21:58.25 bitrate= 303.6kbits/s dup=1 drop=0 speed=5.73x    frame=31641 fps=137 q=32.0 size=   48963kB time=00:21:59.87 bitrate= 303.9kbits/s dup=1 drop=0 speed=5.72x    frame=31687 fps=137 q=32.0 size=   49095kB time=00:22:01.79 bitrate= 304.3kbits/s dup=1 drop=0 speed=5.72x    frame=31737 fps=137 q=32.0 size=   49212kB time=00:22:03.88 bitrate= 304.5kbits/s dup=1 drop=0 speed=5.72x    frame=31793 fps=137 q=32.0 size=   49357kB time=00:22:06.18 bitrate= 304.9kbits/s dup=1 drop=0 speed=5.71x    frame=31857 fps=137 q=32.0 size=   49476kB time=00:22:08.87 bitrate= 305.0kbits/s dup=1 drop=0 speed=5.71x    frame=31915 fps=137 q=32.0 size=   49599kB time=00:22:11.26 bitrate= 305.2kbits/s dup=1 drop=0 speed=5.71x    frame=31966 fps=137 q=32.0 size=   49714kB time=00:22:13.39 bitrate= 305.4kbits/s dup=1 drop=0 speed=5.71x    frame=32016 fps=137 q=32.0 size=   49878kB time=00:22:15.48 bitrate= 306.0kbits/s dup=1 drop=0 speed= 5.7x    frame=32070 fps=137 q=32.0 size=   50013kB time=00:22:17.75 bitrate= 306.3kbits/s dup=1 drop=0 speed= 5.7x    frame=32126 fps=137 q=32.0 size=   50156kB time=00:22:20.09 bitrate= 306.6kbits/s dup=1 drop=0 speed= 5.7x    frame=32174 fps=137 q=32.0 size=   50277kB time=00:22:22.05 bitrate= 306.9kbits/s dup=1 drop=0 speed=5.69x    frame=32206 fps=136 q=32.0 size=   50390kB time=00:22:23.42 bitrate= 307.3kbits/s dup=1 drop=0 speed=5.69x    frame=32243 fps=136 q=32.0 size=   50537kB time=00:22:24.96 bitrate= 307.8kbits/s dup=1 drop=0 speed=5.68x    frame=32296 fps=136 q=32.0 size=   50676kB time=00:22:27.17 bitrate= 308.2kbits/s dup=1 drop=0 speed=5.68x    frame=32345 fps=136 q=32.0 size=   50779kB time=00:22:29.22 bitrate= 308.3kbits/s dup=1 drop=0 speed=5.67x    frame=32387 fps=136 q=32.0 size=   50920kB time=00:22:30.97 bitrate= 308.8kbits/s dup=1 drop=0 speed=5.67x    frame=32425 fps=136 q=32.0 size=   51044kB time=00:22:32.55 bitrate= 309.2kbits/s dup=1 drop=0 speed=5.66x    frame=32461 fps=136 q=32.0 size=   51193kB time=00:22:34.04 bitrate= 309.7kbits/s dup=1 drop=0 speed=5.66x    frame=32508 fps=136 q=32.0 size=   51307kB time=00:22:36.01 bitrate= 310.0kbits/s dup=1 drop=0 speed=5.65x    frame=32537 fps=135 q=32.0 size=   51427kB time=00:22:37.20 bitrate= 310.4kbits/s dup=1 drop=0 speed=5.65x    frame=32570 fps=135 q=32.0 size=   51545kB time=00:22:38.57 bitrate= 310.8kbits/s dup=1 drop=0 speed=5.64x    frame=32639 fps=135 q=32.0 size=   51705kB time=00:22:41.51 bitrate= 311.1kbits/s dup=1 drop=0 speed=5.64x    frame=32693 fps=135 q=32.0 size=   51826kB time=00:22:43.73 bitrate= 311.3kbits/s dup=1 drop=0 speed=5.64x    frame=32769 fps=135 q=32.0 size=   51940kB time=00:22:46.89 bitrate= 311.3kbits/s dup=1 drop=0 speed=5.64x    frame=32825 fps=135 q=32.0 size=   52030kB time=00:22:49.23 bitrate= 311.3kbits/s dup=1 drop=0 speed=5.64x    frame=32880 fps=135 q=32.0 size=   52127kB time=00:22:51.54 bitrate= 311.3kbits/s dup=1 drop=0 speed=5.64x    frame=32931 fps=135 q=32.0 size=   52214kB time=00:22:53.67 bitrate= 311.4kbits/s dup=1 drop=0 speed=5.63x    frame=32981 fps=135 q=32.0 size=   52322kB time=00:22:55.76 bitrate= 311.6kbits/s dup=1 drop=0 speed=5.63x    frame=33025 fps=135 q=32.0 size=   52412kB time=00:22:57.55 bitrate= 311.7kbits/s dup=1 drop=0 speed=5.62x    frame=33064 fps=135 q=32.0 size=   52504kB time=00:22:59.22 bitrate= 311.9kbits/s dup=1 drop=0 speed=5.62x    frame=33118 fps=135 q=32.0 size=   52592kB time=00:23:01.48 bitrate= 311.9kbits/s dup=1 drop=0 speed=5.62x    frame=33206 fps=135 q=32.0 size=   52683kB time=00:23:05.15 bitrate= 311.6kbits/s dup=1 drop=0 speed=5.62x    frame=33285 fps=135 q=32.0 size=   52799kB time=00:23:08.43 bitrate= 311.5kbits/s dup=1 drop=0 speed=5.62x    frame=33363 fps=135 q=32.0 size=   52915kB time=00:23:11.68 bitrate= 311.5kbits/s dup=1 drop=0 speed=5.62x    frame=33433 fps=135 q=32.0 size=   53008kB time=00:23:14.58 bitrate= 311.4kbits/s dup=1 drop=0 speed=5.62x    frame=33506 fps=135 q=32.0 size=   53099kB time=00:23:17.65 bitrate= 311.2kbits/s dup=1 drop=0 speed=5.63x    frame=33572 fps=135 q=32.0 size=   53195kB time=00:23:20.38 bitrate= 311.2kbits/s dup=1 drop=0 speed=5.63x    frame=33642 fps=135 q=32.0 size=   53340kB time=00:23:23.28 bitrate= 311.4kbits/s dup=1 drop=0 speed=5.63x    frame=33720 fps=135 q=32.0 size=   53428kB time=00:23:26.57 bitrate= 311.2kbits/s dup=1 drop=0 speed=5.63x    frame=33790 fps=135 q=32.0 size=   53540kB time=00:23:29.47 bitrate= 311.2kbits/s dup=1 drop=0 speed=5.63x    frame=33849 fps=135 q=32.0 size=   53624kB time=00:23:31.94 bitrate= 311.1kbits/s dup=1 drop=0 speed=5.63x    frame=33915 fps=135 q=32.0 size=   53757kB time=00:23:34.67 bitrate= 311.3kbits/s dup=1 drop=0 speed=5.63x    frame=33979 fps=135 q=32.0 size=   53851kB time=00:23:37.36 bitrate= 311.2kbits/s dup=1 drop=0 speed=5.62x    frame=34045 fps=135 q=32.0 size=   53929kB time=00:23:40.13 bitrate= 311.1kbits/s dup=1 drop=0 speed=5.62x    frame=34086 fps=135 q=32.0 size=   54033kB time=00:23:41.84 bitrate= 311.3kbits/s dup=1 drop=0 speed=5.62x    frame=34127 fps=135 q=32.0 size=   54180kB time=00:23:43.55 bitrate= 311.8kbits/s dup=1 drop=0 speed=5.61x    frame=34160 fps=134 q=32.0 size=   54307kB time=00:23:44.91 bitrate= 312.2kbits/s dup=1 drop=0 speed=5.61x    frame=34191 fps=134 q=29.0 size=   54405kB time=00:23:46.19 bitrate= 312.5kbits/s dup=1 drop=0 speed= 5.6x    frame=34225 fps=134 q=32.0 size=   54530kB time=00:23:47.60 bitrate= 312.9kbits/s dup=1 drop=0 speed= 5.6x    frame=34254 fps=134 q=32.0 size=   54646kB time=00:23:48.84 bitrate= 313.3kbits/s dup=1 drop=0 speed=5.59x    frame=34308 fps=134 q=32.0 size=   54752kB time=00:23:51.10 bitrate= 313.4kbits/s dup=1 drop=0 speed=5.59x    frame=34363 fps=134 q=32.0 size=   54828kB time=00:23:53.36 bitrate= 313.4kbits/s dup=1 drop=0 speed=5.58x    frame=34424 fps=134 q=32.0 size=   54906kB time=00:23:55.92 bitrate= 313.2kbits/s dup=1 drop=0 speed=5.58x    frame=34466 fps=134 q=32.0 size=   55014kB time=00:23:57.67 bitrate= 313.5kbits/s dup=1 drop=0 speed=5.58x    frame=34505 fps=134 q=32.0 size=   55123kB time=00:23:59.29 bitrate= 313.7kbits/s dup=1 drop=0 speed=5.57x    frame=34547 fps=133 q=32.0 size=   55210kB time=00:24:01.04 bitrate= 313.9kbits/s dup=1 drop=0 speed=5.57x    frame=34613 fps=133 q=32.0 size=   55327kB time=00:24:03.81 bitrate= 313.9kbits/s dup=1 drop=0 speed=5.57x    frame=34674 fps=133 q=32.0 size=   55424kB time=00:24:06.37 bitrate= 313.9kbits/s dup=1 drop=0 speed=5.56x    frame=34718 fps=133 q=32.0 size=   55539kB time=00:24:08.17 bitrate= 314.2kbits/s dup=1 drop=0 speed=5.56x    frame=34762 fps=133 q=32.0 size=   55616kB time=00:24:10.04 bitrate= 314.2kbits/s dup=1 drop=0 speed=5.56x    frame=34801 fps=133 q=32.0 size=   55764kB time=00:24:11.62 bitrate= 314.7kbits/s dup=1 drop=0 speed=5.55x    frame=34848 fps=133 q=32.0 size=   55850kB time=00:24:13.59 bitrate= 314.8kbits/s dup=1 drop=0 speed=5.55x    frame=34927 fps=133 q=32.0 size=   55964kB time=00:24:16.87 bitrate= 314.7kbits/s dup=1 drop=0 speed=5.55x    frame=35010 fps=133 q=32.0 size=   56086kB time=00:24:20.37 bitrate= 314.6kbits/s dup=1 drop=0 speed=5.55x    frame=35087 fps=133 q=32.0 size=   56171kB time=00:24:23.57 bitrate= 314.4kbits/s dup=1 drop=0 speed=5.56x    frame=35177 fps=133 q=32.0 size=   56277kB time=00:24:27.11 bitrate= 314.2kbits/s dup=1 drop=0 speed=5.56x    [mp4 @ 0x27db6e0] Starting second pass: moving the moov atom to the beginning of the file
frame=35181 fps=133 q=-1.0 Lsize=   57157kB time=00:24:27.32 bitrate= 319.1kbits/s dup=1 drop=0 speed=5.55x    
video:47090kB audio:9233kB subtitle:0kB other streams:0kB global headers:0kB muxing overhead: 1.480996%
[libx264 @ 0x284c3e0] frame I:395   Avg QP:22.10  size: 18269
[libx264 @ 0x284c3e0] frame P:11927 Avg QP:25.38  size:  2734
[libx264 @ 0x284c3e0] frame B:22859 Avg QP:29.55  size:   367
[libx264 @ 0x284c3e0] consecutive B-frames:  4.9% 14.3% 32.9% 47.9%
[libx264 @ 0x284c3e0] mb I  I16..4: 21.0% 56.0% 23.0%
[libx264 @ 0x284c3e0] mb P  I16..4:  4.6%  4.7%  1.1%  P16..4: 32.1%  4.6%  4.5%  0.1%  0.0%    skip:48.2%
[libx264 @ 0x284c3e0] mb B  I16..4:  0.3%  0.3%  0.1%  B16..8: 13.7%  0.8%  0.1%  direct: 0.6%  skip:84.2%  L0:38.8% L1:59.2% BI: 2.0%
[libx264 @ 0x284c3e0] 8x8 transform intra:47.3% inter:63.1%
[libx264 @ 0x284c3e0] coded y,uvDC,uvAC intra: 31.8% 50.2% 10.5% inter: 2.4% 4.6% 0.0%
[libx264 @ 0x284c3e0] i16 v,h,dc,p: 41% 32% 17% 10%
[libx264 @ 0x284c3e0] i8 v,h,dc,ddl,ddr,vr,hd,vl,hu: 23% 20% 40%  3%  2%  3%  3%  3%  4%
[libx264 @ 0x284c3e0] i4 v,h,dc,ddl,ddr,vr,hd,vl,hu: 27% 23% 17%  5%  6%  6%  6%  5%  5%
[libx264 @ 0x284c3e0] i8c dc,h,v,p: 47% 25% 21%  6%
[libx264 @ 0x284c3e0] Weighted P-Frames: Y:2.5% UV:1.4%
[libx264 @ 0x284c3e0] ref P L0: 62.4% 11.0% 11.3%  4.0%  3.2%  3.0%  2.8%  1.5%  0.6%  0.0%
[libx264 @ 0x284c3e0] ref B L0: 83.3%  7.0%  4.2%  1.6%  1.4%  1.6%  0.8%
[libx264 @ 0x284c3e0] ref B L1: 93.3%  6.7%
[libx264 @ 0x284c3e0] kb/s:262.89
